<svg version="1.1" xmlns="http://www.w3.org/2000/svg" xmlns:xlink="http://www.w3.org/1999/xlink" width="179.77399" height="300" viewBox="0,0,179.77399,300"><g transform="translate(-150.113,-30)"><g data-paper-data="{&quot;isPaintingLayer&quot;:true}" fill-rule="nonzero" stroke-miterlimit="10" stroke-dasharray="" stroke-dashoffset="0" style="mix-blend-mode: normal"><path d="M264,202l-10,1c-3.4,-18.6 -8,-60.7 -7.7,-60.7c-0.4,-10.4 0.1,-20.8 0.9,-21.6c1.8,-1.7 5.1,-1 8.1,1c2.6,1.8 5.1,4.7 6.1,7.8c0.4,1.4 0.8,2.7 1.3,4.1c1,2.9 4,19.2 4.1,24.3c0.2,14.4 -0.8,29.1 -2.8,44.1z" fill="#ff7d7d" stroke="#000000" stroke-width="1" stroke-linecap="round" stroke-linejoin="round"/><path d="M242.2,119.3l0.9,3.4l-6.3,0.8l-1,0.1l-1,-0.1l-6.3,-0.8l0.9,-3.4c1.4,-5.3 0.8,-11 -1.5,-15.9l8,0.6l8,-0.6c-2.6,5.3 -3.8,11.2 -1.7,15.9z" fill="#c29e71" stroke="#000000" stroke-width="1" stroke-linecap="round" stroke-linejoin="round"/><path d="M212.7,210.6c-12.4,-21.9 0.2,-86.7 4.9,-90.1c3.3,-2.3 7.2,-2.7 9.3,-2.7c0.8,0 1.6,0.3 2.2,0.8c2.9,2.4 12.2,3.8 14.4,0.9c0,0 0.2,-0.1 0.4,-0.1c3.1,-0.8 6.4,0.3 8.4,2.8c0,0.1 0.1,0.1 0.1,0.1c4.9,6.9 8.1,16.1 7.4,23c-2.1,20.1 3.2,37.2 -0.1,62.1c-1.5,4.5 -44.4,8.3 -47,3.2z" fill="#c38f4e" stroke="#000000" stroke-width="1" stroke-linecap="round" stroke-linejoin="round"/><g stroke-width="1"><path d="M244.3,294.9l9,-1.8c5.9,2.6 11.3,6.1 16,10.7c1.6,1.6 2.1,4.2 0.8,6.1c-1.3,1.9 -3.7,2.4 -6.7,2.1c-11.6,-1.8 -17.6,-7.2 -20.6,-14.5c-0.4,-1.1 0.3,-2.3 1.5,-2.6z" fill="#c38f4e" stroke="none" stroke-linecap="butt" stroke-linejoin="miter"/><path d="M253.3,293.2c5.9,2.6 11.3,6.1 16,10.7c1.6,1.6 2.1,4.2 0.8,6.1c-1.3,1.9 -3.7,2.4 -6.7,2.1c-11.6,-1.9 -19.5,-8.7 -21,-17.2" fill="none" stroke="#000000" stroke-linecap="round" stroke-linejoin="round"/></g><path d="M261.5,310.2c-7.9,-2.7 -14.5,-7.3 -20.1,-13.2l-1,-5.8c-0.1,-0.7 0.6,-1.3 1.3,-1l2.1,1c1.7,-2.3 5.2,-4.5 8.7,-4.1c4.7,0.4 1,3.7 1,3.7l15.9,9.9l-0.8,5.8l-6.7,4.2" fill="#ff7d7d" stroke="#000000" stroke-width="1" stroke-linecap="round" stroke-linejoin="round"/><path d="M269.4,300.7l-1.5,1.6l-10.9,-8.3l-3.5,-3.2l15.9,9.9" fill="#ff7d7d" stroke="#000000" stroke-width="1" stroke-linecap="round" stroke-linejoin="round"/><path d="M265.4,305.3l-3.4,4.4c-7.3,-2.7 -15.3,-7.1 -20.6,-12.6l-1,-5.8c-0.1,-0.7 0.6,-1.3 1.3,-1l2.1,1l1.9,4c4.6,4.5 12.8,7.2 19.7,10z" fill="#ff7d7d" stroke="#000000" stroke-width="1" stroke-linecap="round" stroke-linejoin="round"/><path d="M260,312.4c0.1,-0.6 0.4,-1.6 0.7,-2.2c0.2,-0.4 0.8,0.2 1,-0.2c1.5,-3.1 4.2,-7.7 7.7,-9.3c0,0 8.1,3.7 5.8,9.8c-1,2.6 -3.6,4.5 -6.9,4.4c-3.6,0 -8.1,-2 -8.3,-2.5z" fill="#ffffff" stroke="#000000" stroke-width="1" stroke-linecap="round" stroke-linejoin="round"/><path d="M262,309.7c0.5,-3.7 2.7,-6.8 7.4,-9c0,0 8.6,3.9 4.2,9c-4.4,5.1 -11.6,0 -11.6,0z" fill="#ffffff" stroke="#000000" stroke-width="1" stroke-linecap="round" stroke-linejoin="round"/><path d="M241.4,296.9c4.2,5.1 13.2,9.7 20.5,12.8c0.3,0.2 -1,3.1 -1,3.1c-7.3,-3 -16,-7.7 -20.1,-12.7z" fill="#ffffff" stroke="#000000" stroke-width="1" stroke-linecap="round" stroke-linejoin="round"/><g stroke-width="1" stroke-linecap="butt" stroke-linejoin="miter"><g fill="#000000" stroke="none"><path d="M249.1,297.7c0.276,0 0.526,0.112 0.707,0.293c0.181,0.181 0.293,0.431 0.293,0.707c0,0.276 -0.112,0.526 -0.293,0.707c-0.181,0.181 -0.431,0.293 -0.707,0.293c-0.276,0 -0.526,-0.112 -0.707,-0.293c-0.181,-0.181 -0.293,-0.431 -0.293,-0.707c0,-0.276 0.112,-0.526 0.293,-0.707c0.181,-0.181 0.431,-0.293 0.707,-0.293z"/><path d="M257.2,292.9c0.276,0 0.526,0.112 0.707,0.293c0.181,0.181 0.293,0.431 0.293,0.707c0,0.276 -0.112,0.526 -0.293,0.707c-0.181,0.181 -0.431,0.293 -0.707,0.293c-0.276,0 -0.526,-0.112 -0.707,-0.293c-0.181,-0.181 -0.293,-0.431 -0.293,-0.707c0,-0.276 0.112,-0.526 0.293,-0.707c0.181,-0.181 0.431,-0.293 0.707,-0.293z"/><path d="M264.59999,297.5c0.276,0 0.526,0.112 0.707,0.293c0.181,0.181 0.293,0.431 0.293,0.707c0,0.276 -0.112,0.526 -0.293,0.707c-0.181,0.181 -0.431,0.293 -0.707,0.293c-0.276,0 -0.526,-0.112 -0.707,-0.293c-0.181,-0.181 -0.293,-0.431 -0.293,-0.707c0,-0.276 0.112,-0.526 0.293,-0.707c0.181,-0.181 0.431,-0.293 0.707,-0.293z"/><path d="M260.59999,295.2c0.276,0 0.526,0.112 0.707,0.293c0.181,0.181 0.293,0.431 0.293,0.707c0,0.276 -0.112,0.526 -0.293,0.707c-0.181,0.181 -0.431,0.293 -0.707,0.293c-0.276,0 -0.526,-0.112 -0.707,-0.293c-0.181,-0.181 -0.293,-0.431 -0.293,-0.707c0,-0.276 0.112,-0.526 0.293,-0.707c0.181,-0.181 0.431,-0.293 0.707,-0.293z"/><path d="M257.7,302.2c0.276,0 0.526,0.112 0.707,0.293c0.181,0.181 0.293,0.431 0.293,0.707c0,0.276 -0.112,0.526 -0.293,0.707c-0.181,0.181 -0.431,0.293 -0.707,0.293c-0.276,0 -0.526,-0.112 -0.707,-0.293c-0.181,-0.181 -0.293,-0.431 -0.293,-0.707c0,-0.276 0.112,-0.526 0.293,-0.707c0.181,-0.181 0.431,-0.293 0.707,-0.293z"/><path d="M253.2,299.9c0.276,0 0.526,0.112 0.707,0.293c0.181,0.181 0.293,0.431 0.293,0.707c0,0.276 -0.112,0.526 -0.293,0.707c-0.181,0.181 -0.431,0.293 -0.707,0.293c-0.276,0 -0.526,-0.112 -0.707,-0.293c-0.181,-0.181 -0.293,-0.431 -0.293,-0.707c0,-0.276 0.112,-0.526 0.293,-0.707c0.181,-0.181 0.431,-0.293 0.707,-0.293z"/></g><g fill="none" stroke="#ffffff"><path d="M257,294c-1,1.4 -3.7,3 -7.8,4.7"/><path d="M264.4,298.7c-1,1.9 -3.6,3.3 -6.7,4.5"/><path d="M260.4,296.3c-0.5,1.1 -3.6,2.7 -7.2,4.5"/></g></g><g stroke-width="1"><path d="M236.5,316.2c-7.9,-2.7 -14.5,-7.3 -20.1,-13.2l-1,-5.8c-0.1,-0.7 0.6,-1.3 1.3,-1l2.1,1c1.7,-2.3 5.2,-4.5 8.7,-4.1c4.7,0.4 1,3.7 1,3.7l15.9,9.9l-0.8,5.8l-6.7,4.2" fill="#ff7d7d" stroke="#000000" stroke-linecap="round" stroke-linejoin="round"/><path d="M244.4,306.7l-1.6,1.6l-10.8,-8.3l-3.5,-3.2l15.9,9.9" fill="#ff7d7d" stroke="#000000" stroke-linecap="round" stroke-linejoin="round"/><path d="M240.3,311.3l-3.4,4.4c-7.3,-2.7 -15.3,-7.1 -20.6,-12.6l-1,-5.8c-0.1,-0.7 0.6,-1.3 1.3,-1l2.1,1l1.9,4c4.7,4.5 12.9,7.2 19.7,10z" fill="#ff7d7d" stroke="#000000" stroke-linecap="round" stroke-linejoin="round"/><path d="M235,318.4c0.1,-0.6 0.4,-1.6 0.7,-2.2c0.2,-0.4 0.8,0.2 1,-0.2c1.5,-3.1 4.2,-7.7 7.7,-9.3c0,0 8.1,3.7 5.8,9.8c-1,2.6 -3.6,4.5 -6.9,4.4c-3.6,0 -8.1,-2 -8.3,-2.5z" fill="#ffffff" stroke="#000000" stroke-linecap="round" stroke-linejoin="round"/><path d="M237,315.7c0.5,-3.7 2.7,-6.8 7.4,-9c0,0 8.6,3.9 4.2,9c-4.4,5.1 -11.6,0 -11.6,0z" fill="#ffffff" stroke="#000000" stroke-linecap="round" stroke-linejoin="round"/><path d="M216.3,303c4.2,5.1 13.2,9.7 20.5,12.8c0.3,0.2 -1,3.1 -1,3.1c-7.3,-3 -16,-7.7 -20.1,-12.7z" fill="#ffffff" stroke="#000000" stroke-linecap="round" stroke-linejoin="round"/><g stroke-linecap="butt" stroke-linejoin="miter"><g fill="#000000" stroke="none"><path d="M224.1,303.7c0.276,0 0.526,0.112 0.707,0.293c0.181,0.181 0.293,0.431 0.293,0.707c0,0.276 -0.112,0.526 -0.293,0.707c-0.181,0.181 -0.431,0.293 -0.707,0.293c-0.276,0 -0.526,-0.112 -0.707,-0.293c-0.181,-0.181 -0.293,-0.431 -0.293,-0.707c0,-0.276 0.112,-0.526 0.293,-0.707c0.181,-0.181 0.431,-0.293 0.707,-0.293z"/><path d="M232.2,298.9c0.276,0 0.526,0.112 0.707,0.293c0.181,0.181 0.293,0.431 0.293,0.707c0,0.276 -0.112,0.526 -0.293,0.707c-0.181,0.181 -0.431,0.293 -0.707,0.293c-0.276,0 -0.526,-0.112 -0.707,-0.293c-0.181,-0.181 -0.293,-0.431 -0.293,-0.707c0,-0.276 0.112,-0.526 0.293,-0.707c0.181,-0.181 0.431,-0.293 0.707,-0.293z"/><path d="M239.6,303.5c0.276,0 0.526,0.112 0.707,0.293c0.181,0.181 0.293,0.431 0.293,0.707c0,0.276 -0.112,0.526 -0.293,0.707c-0.181,0.181 -0.431,0.293 -0.707,0.293c-0.276,0 -0.526,-0.112 -0.707,-0.293c-0.181,-0.181 -0.293,-0.431 -0.293,-0.707c0,-0.276 0.112,-0.526 0.293,-0.707c0.181,-0.181 0.431,-0.293 0.707,-0.293z"/><path d="M235.6,301.2c0.276,0 0.526,0.112 0.707,0.293c0.181,0.181 0.293,0.431 0.293,0.707c0,0.276 -0.112,0.526 -0.293,0.707c-0.181,0.181 -0.431,0.293 -0.707,0.293c-0.276,0 -0.526,-0.112 -0.707,-0.293c-0.181,-0.181 -0.293,-0.431 -0.293,-0.707c0,-0.276 0.112,-0.526 0.293,-0.707c0.181,-0.181 0.431,-0.293 0.707,-0.293z"/><path d="M232.6,308.2c0.276,0 0.526,0.112 0.707,0.293c0.181,0.181 0.293,0.431 0.293,0.707c0,0.276 -0.112,0.526 -0.293,0.707c-0.181,0.181 -0.431,0.293 -0.707,0.293c-0.276,0 -0.526,-0.112 -0.707,-0.293c-0.181,-0.181 -0.293,-0.431 -0.293,-0.707c0,-0.276 0.112,-0.526 0.293,-0.707c0.181,-0.181 0.431,-0.293 0.707,-0.293z"/><path d="M228.1,305.9c0.276,0 0.526,0.112 0.707,0.293c0.181,0.181 0.293,0.431 0.293,0.707c0,0.276 -0.112,0.526 -0.293,0.707c-0.181,0.181 -0.431,0.293 -0.707,0.293c-0.276,0 -0.526,-0.112 -0.707,-0.293c-0.181,-0.181 -0.293,-0.431 -0.293,-0.707c0,-0.276 0.112,-0.526 0.293,-0.707c0.181,-0.181 0.431,-0.293 0.707,-0.293z"/></g><g fill="none" stroke="#ffffff"><path d="M232,300c-1,1.4 -3.7,3 -7.8,4.7"/><path d="M239.4,304.7c-1,1.9 -3.6,3.3 -6.7,4.5"/><path d="M235.4,302.3c-0.5,1.1 -3.6,2.7 -7.2,4.5"/></g></g></g><path d="M212.7,210.6c-12.4,-21.9 0.2,-86.7 4.9,-90.1c3.3,-2.3 7.2,-2.7 9.3,-2.7c0.8,0 1.6,0.3 2.2,0.8c2.9,2.4 12.2,3.8 14.4,0.9c0,0 0.2,-0.1 0.4,-0.1c3.1,-0.8 6.4,0.3 8.4,2.8c0,0.1 0.1,0.1 0.1,0.1c4.9,6.9 8.1,16.1 7.4,23c-2.1,20.1 7.2,37.2 3.9,62.1c-1.5,4.5 -48.4,8.3 -51,3.2z" fill="#ff7d7d" stroke="#000000" stroke-width="1" stroke-linecap="round" stroke-linejoin="round"/><g stroke-width="1"><g stroke-linecap="butt" stroke-linejoin="miter"><path d="M222.3,224c-2.2,-0.1 -3.2,-3.3 -4.8,-5l-0.4,0.4c-0.1,3.7 0,7.1 0.5,10c0,0.2 0.1,0.4 0.1,0.6c0,1.3 -0.6,2.4 -1.9,2.7c-0.4,0.1 -0.8,0 -1.1,-0.2c0,0.1 0,0.2 0,0.3c0,1.2 -0.9,2.3 -2.2,2.5c-0.8,0.1 -1.4,-0.4 -1.7,-1.1c-0.2,-0.5 -0.5,-1 -0.7,-1.6v0c-0.9,1.1 -2.7,0.7 -3.1,-0.7c-0.8,-2.5 -2.1,-7.9 -2.1,-10c0,-3.6 2.1,-7.6 2.7,-8.8l0.1,0.5l0.1,-0.8l-1.3,-5.7c2.6,-2.7 5.3,-3.4 8.1,0.8l0.1,3.2l1.8,0.4l0.3,0.5c2.6,1.3 3.8,2.9 4.7,6c0,0 2.2,2.4 2.8,3.7c0.7,1.6 -1.2,2.4 -2,2.3z" fill="#c29e71" stroke="none"/><g fill="none" stroke="#000000"><path d="M214.7,208.1l0.1,3.2c4,1.4 5.7,3 6.8,6.8c0,0 2.3,2.4 2.8,3.7c0.6,1.5 -1.2,2.4 -2,2.3c-2.4,-0.1 -3.4,-3.8 -5.2,-5.4l0.1,0.4"/><path d="M210.2,232.6c-0.1,0 -0.1,0 0,0c-1,1.1 -2.7,0.7 -3.1,-0.6c-0.8,-2.5 -2.1,-7.9 -2.1,-10c0,-4.3 2.9,-9.1 2.9,-9.1l-1.3,-5.7"/><path d="M214.6,232.4c0.3,1.4 -0.7,2.8 -2.1,2.9c-0.7,0.1 -1.4,-0.4 -1.7,-1.1c-1.6,-3.4 -2.4,-7.4 -2,-10.8"/><path d="M217.2,218.7c-0.1,3.9 -0.1,7.7 0.5,10.7c0.3,1.5 -0.4,3 -1.9,3.3c-0.9,0.2 -1.8,-0.4 -2.1,-1.3c-0.8,-2.4 -1.1,-5.3 -1.3,-8.4"/></g></g><g><path d="M216.1,173c2.4,5.4 0.1,14.2 0,19.6c-0.1,5.4 -1.4,15.3 -1.4,15.3c0,0 -5,3.5 -8.1,-0.8c0,0 -1,-20 -1.5,-24.6c-0.5,-4.6 0,-7.4 1.9,-10.1c2,-2.4 6.3,-5.7 9.1,0.6z" fill="#c38f4e" stroke="none" stroke-linecap="butt" stroke-linejoin="miter"/><path d="M217.1,177.1c0.5,5.1 -0.9,11.4 -1,15.6c-0.1,5.4 -1.4,15.6 -1.4,15.6" fill="none" stroke="#000000" stroke-linecap="round" stroke-linejoin="round"/><path d="M206.7,207.7c-0.9,-2.8 -1.3,-20.6 -1.7,-25.1c-0.2,-2.4 -0.2,-4.2 0.1,-5.9" fill="none" stroke="#000000" stroke-linecap="round" stroke-linejoin="round"/></g><g><path d="M218.7,168.9c0,1.5 -0.7,7.5 -1.8,9c-1.4,2 -7.7,1.4 -9,1.2c-4.3,-0.6 -2.6,-5.7 -2.7,-8.1c0,-0.8 0.1,-2 0.1,-2.9c-0.2,-15.1 4.2,-37.4 7.1,-42.6c3.4,-5.9 8.1,-0.8 10.5,7c1.8,5.7 -4.2,22.6 -4.2,36.4z" fill="#c38f4e" stroke="none" stroke-linecap="butt" stroke-linejoin="miter"/><path d="M205.1,176.8c-0.5,-1.8 0.1,-4.3 0.1,-5.8c0,-0.8 0.1,-2 0.1,-2.9c-0.2,-15.1 4.2,-37.4 7.1,-42.6c1.1,-1.9 2.3,-2.7 3.5,-2.6" fill="none" stroke="#000000" stroke-linecap="round" stroke-linejoin="round"/><path d="M216.1,122.9c2.6,0.4 5.2,4.4 6.8,9.6c1.8,5.6 -2.9,18.6 -4.2,32.8c0,1.5 -1,8.2 -1.6,12.4" fill="none" stroke="#000000" stroke-linecap="round" stroke-linejoin="round"/></g><path d="M223.6,152.3v0c-2.1,20 -4.8,39.4 -8.1,58l-10,1.8c-2.9,-21.5 -3.7,-42.4 -1.6,-62.7c0.1,-6.6 2.1,-13.1 4.2,-19.2c1.6,-4.5 4.6,-9.4 8.5,-9.8c3.4,-0.3 6.9,4.6 7.4,8.6c1,7.6 1.1,15.7 -0.4,23.3z" fill="#ff7d7d" stroke="#000000" stroke-linecap="round" stroke-linejoin="round"/></g><g><g><path d="M259.4,54c0.9,0.4 2,1.4 3.1,2.7c2.9,3.3 4.3,7.6 4.2,12c-0.1,11.7 -0.7,22.7 -6.4,33.2c-3.5,6.2 -13.3,7.3 -20.5,6.7c-6.1,-0.5 -11.8,-4.7 -15.7,-9.6c-4.4,-5.4 -7.7,-12.1 -7.7,-19.7c0,-7.6 1,-14.7 5.7,-19.7c4.7,-5 13.7,-7.7 20.4,-8.1c6.3,-0.5 11.3,-0.1 16.9,2.5z" fill="#c29e71" stroke="#000000" stroke-width="1" stroke-linecap="round" stroke-linejoin="round"/><g stroke-width="1"><path d="M245.4,80.2c0.1,2.4 -0.8,3.8 -2.4,4.5c-1.1,0.5 -2.4,0.7 -4,0.8c-2.1,0.1 -3.8,0 -5,-0.5c-1.3,-0.5 -2.1,-1.3 -2.6,-2.6v-0.1c-0.2,-0.6 -0.4,-1.3 -0.5,-2.2c-0.4,-4.1 3.2,-5.9 7.1,-5.9c0.5,0 1.1,0 1.6,0h0.1c3.1,0.4 5.5,1.3 5.7,6z" fill="#ffffff" stroke="#000000" stroke-linecap="round" stroke-linejoin="round"/><path d="M242,78.7c0.1,3.3 -2.3,4.2 -5.8,4.4c-2.1,0.1 -3.6,0 -4.7,-0.5v-0.1c-0.2,-0.6 -0.4,-1.3 -0.5,-2.2c-0.4,-4.1 3.2,-5.9 7.1,-5.9c0.5,0 1.1,0 1.6,0c1.3,0.6 2.2,1.8 2.3,4.3z" fill="#000000" stroke="none" stroke-linecap="butt" stroke-linejoin="miter"/><path d="M234,76.4c0.359,0 0.684,0.179 0.919,0.469c0.235,0.29 0.381,0.69 0.381,1.131c0,0.441 -0.146,0.841 -0.381,1.131c-0.235,0.29 -0.56,0.469 -0.919,0.469c-0.359,0 -0.684,-0.179 -0.919,-0.469c-0.235,-0.29 -0.381,-0.69 -0.381,-1.131c0,-0.441 0.146,-0.841 0.381,-1.131c0.235,-0.29 0.56,-0.469 0.919,-0.469z" fill="#ffffff" stroke="none" stroke-linecap="butt" stroke-linejoin="miter"/></g><g stroke-width="1"><path d="M264.59999,80.1c0.1,4 -1.7,5 -4.4,5.2c-3.1,0.3 -4.6,-0.6 -5.3,-3v-0.1c-0.2,-0.6 -0.3,-1.3 -0.3,-2.1c-0.3,-4.1 2.2,-5.8 4.9,-5.8c0.4,0 0.8,0 1.1,0h0.1c2.1,0.3 3.8,1.2 3.9,5.8z" fill="#ffffff" stroke="#000000" stroke-linecap="round" stroke-linejoin="round"/><path d="M262.3,78.6c0.1,3.3 -1.6,4.1 -4,4.3c-1.4,0.1 -2.5,0 -3.3,-0.4v-0.1c-0.2,-0.6 -0.3,-1.3 -0.3,-2.1c-0.3,-4.1 2.2,-5.8 4.9,-5.8c0.4,0 0.8,0 1.1,0c0.9,0.5 1.5,1.7 1.6,4.1z" fill="#000000" stroke="none" stroke-linecap="butt" stroke-linejoin="miter"/><path d="M256.9,76.4c0.331,0 0.631,0.179 0.848,0.469c0.218,0.29 0.352,0.69 0.352,1.131c0,0.441 -0.134,0.841 -0.352,1.131c-0.217,0.29 -0.517,0.469 -0.848,0.469c-0.331,0 -0.631,-0.179 -0.848,-0.469c-0.218,-0.29 -0.352,-0.69 -0.352,-1.131c0,-0.441 0.134,-0.841 0.352,-1.131c0.217,-0.29 0.517,-0.469 0.848,-0.469z" fill="#ffffff" stroke="none" stroke-linecap="butt" stroke-linejoin="miter"/></g><path d="M249.3,100.4c-3.6,-0.2 -8.2,-1.9 -10.9,-4.3" fill="none" stroke="#000000" stroke-width="0.8715" stroke-linecap="round" stroke-linejoin="round"/><path d="M244.1,71.8c-5.9,-0.6 -11.2,0.2 -15.9,2.6c-1.5,-2 9.3,-6 13.8,-5.2c3.8,0.6 2.4,2.4 2.1,2.6z" fill="#000000" stroke="none" stroke-width="1" stroke-linecap="butt" stroke-linejoin="miter"/><path d="M255.4,69.7c3.7,-0.8 10.2,0.4 10.3,3.4c-4.4,-2.1 -7.2,-1.4 -12.1,-0.8c-0.2,-0.2 -1.3,-2 1.8,-2.6z" fill="#000000" stroke="none" stroke-width="1" stroke-linecap="butt" stroke-linejoin="miter"/><g fill="none" stroke="#000000" stroke-linecap="butt" stroke-linejoin="miter"><path d="M251.5,86.2l-0.7,-5.9" stroke-width="1"/><path d="M250.5,86c1.8,-0.1 3.4,1.4 3.4,3.2c0.1,1.9 -1.4,3.3 -3.2,3.5c-0.8,0.1 -1.5,-0.1 -2.2,-0.4" stroke-width="0.9916"/></g><path d="M219.7,89.9c0,0 0.4,1.2 -3.2,0.4c-3.6,-0.8 -2.9,-4.3 -2.9,-4.3c0,0 -4,-9 1,-10.9c1.8,-0.7 3.2,-0.4 4.2,0.2" fill="#c38f4e" stroke="#000000" stroke-width="1" stroke-linecap="round" stroke-linejoin="round"/></g><g fill="#000000" stroke="#000000" stroke-width="1" stroke-linecap="butt" stroke-linejoin="miter"><path d="M271.09999,83.1c0.1,-4 -1.9,-5.8 -3,-8c0.6,3.1 -1.1,13.9 -1.1,13.9c-0.6,-0.1 -1.1,-0.7 -1.6,-1.8c1.1,-5.9 1.3,-12 1.4,-18.3c0.9,0.4 1.8,0.9 2.5,1.3c0.5,0.3 1.1,0.6 1.8,0.8c0.8,3.3 1.2,7.2 0,12.1z"/><path d="M219.2,52.3l-4.2,10.7c0,0 -5.6,-3.6 -8.5,0c-4.8,5.8 -0.9,25.4 -2.5,33.5c-3.4,17.2 -14.7,26.3 -33.3,27.3c8.4,-2.4 15.1,-5.2 16.6,-9.1c-13.1,5.7 -22.6,6 -29.6,2.5c4.8,1 9.3,0.9 13.5,-0.4c-6.8,0.6 -12.1,-0.9 -15.9,-4.6c1.2,0 2.5,-0.1 3.9,-0.3c20,-2.9 32.2,-19.6 33.6,-39.8c0.4,-5.7 1.1,-12.1 2.6,-17.5c3,-10.8 17.5,-12.9 23.2,-3.3c0.4,0.6 0.6,1 0.6,1z"/><g><path d="M220.3,100c0.1,0.5 -11.4,-13.9 -11.4,-26.4c0,-3.2 0.4,-6.3 1.1,-9.5c2.4,-8.4 3.5,-12.5 10.7,-13.7l2.9,10.2c0.1,9.8 -0.3,20.9 -1.9,26.8c-0.4,-1.1 -0.9,-1.8 -1.5,-2.3c0,0 -0.1,4.9 -0.6,7.4c-0.5,2.8 0.3,5.8 0.7,7.5z"/><path d="M217.5,54c-0.3,-1 -1.1,-2.2 -2,-3.4c-0.1,-0.2 0.1,-0.4 0.3,-0.3c1.3,0.5 2.5,1.2 3.4,2c-1,-1.4 -1.4,-3 -1.5,-4.6c0,-0.2 0.3,-0.3 0.4,-0.1c0.6,0.8 1.3,1.5 2.1,2c1.7,-3.6 5,-7.5 11.4,-9c11,-2.7 42.1,1.5 40.9,26c-0.1,1.9 0.4,3.7 1.6,5.1v0.1c-1.4,-0.2 -3.6,-0.8 -4.8,-1.5c-6,-3.7 -16,-5.4 -23.1,-5.5c-9.5,-0.1 -18.5,-1.1 -27.1,-4.1"/></g></g></g><path d="M253.50549,162.06044c0.20614,2.55886 0.16393,4.208 -0.12382,4.95095c-1.19745,3.38343 -5.22041,5.50747 -12.06747,6.37427c-2.31119,0.28918 -4.62097,-0.80417 -6.93218,-3.28c0,0.37148 0.08233,1.48521 0.24836,3.34263c0.12383,1.36138 0.10271,2.47512 -0.06191,3.34122c-1.03212,0.65993 -1.85669,0.99062 -2.47583,0.99062c-0.94982,0 -1.4233,-0.928 -1.4233,-2.78539c0,-0.32998 0.0204,-0.85554 0.06191,-1.57737c0.0408,-0.72114 0.06191,-1.22701 0.06191,-1.51618c0,-0.70146 -0.06191,-1.19605 -0.18574,-1.48521v-3.40383c0,-0.08231 0.0204,-0.17519 0.06191,-0.2786c0.0408,-0.10271 0.08233,-0.19559 0.12383,-0.2786c-0.04151,-0.57692 -0.02112,-1.46412 0.06191,-2.66086c0.08231,-0.74295 0.08231,-1.21645 0,-1.4233c-0.20683,-0.4116 -0.30885,-0.65923 -0.30885,-0.74226c0.16393,-1.15523 1.011,-1.73286 2.53703,-1.73286c0.98991,0 1.58794,0.35106 1.79479,1.05184c0,0.65993 0.08233,1.63015 0.24767,2.90851c0.24836,1.48521 1.03142,2.97115 2.35199,4.45565c1.4437,1.69206 2.8255,2.47583 4.14678,2.35199c1.48521,-0.16393 2.97044,-0.51499 4.45565,-1.05184c2.06284,-0.74295 3.3004,-1.60904 3.71339,-2.59896c0.28776,-0.74295 0.43269,-1.52603 0.43269,-2.35199c0,-2.51592 -0.928,-4.39372 -2.7847,-5.63129c-0.82598,-0.53612 -2.35199,-0.96951 -4.58017,-1.30019c-1.27907,-0.16393 -2.06354,-0.24765 -2.35129,-0.24765c-1.98053,0.04151 -3.82738,-0.59803 -5.53913,-1.91862c-1.71248,-1.31989 -2.56798,-2.84731 -2.56798,-4.58017v-3.58887c0,-0.78306 0.45379,-2.61936 1.3621,-5.50747c0.4116,-1.3621 0.63883,-2.08324 0.68104,-2.16627c0.37078,-0.86608 0.84497,-1.4437 1.4226,-1.73286c1.4022,-0.70074 2.88741,-1.05184 4.45565,-1.05184c3.05275,0 5.30131,1.23756 6.74572,3.71268c0.12383,0.12383 0.32998,0.30958 0.61913,0.55721c0.0408,-0.57692 0.12382,-1.46412 0.24765,-2.66086c-0.04151,-0.53612 -0.08301,-1.05184 -0.12383,-1.54714c0,-0.57692 0.28776,-0.9688 0.8661,-1.17565c0.16464,-0.08231 0.39188,-0.14423 0.68104,-0.18574c0.41229,-0.08231 0.85623,0.02112 1.33113,0.30885c0.47351,0.28918 0.66978,1.15596 0.58747,2.59896c-0.04151,0.9076 -0.12382,2.18667 -0.24765,3.8365c-0.12383,1.3621 -0.30885,3.44534 -0.55721,6.25113c0.08231,0.65993 0.08231,1.56824 0,2.72279c-0.20683,0.78377 -0.82598,1.17565 -1.85669,1.17565c-0.53681,0 -1.05184,-0.14423 -1.54714,-0.43269c-0.24765,-0.78306 -0.37078,-1.11443 -0.37078,-0.99062c0.08162,-1.11375 -0.14492,-2.59896 -0.68104,-4.45565c-0.4545,-0.9484 -1.08277,-2.29923 -1.88765,-4.05321c-0.80488,-1.75328 -1.86725,-2.69252 -3.18714,-2.81636c-1.65055,-0.12383 -2.72279,0.43341 -3.21807,1.67095c-0.16464,0.53681 -0.39259,1.32128 -0.68034,2.35199c-0.49532,1.52672 -0.80486,2.99153 -0.92869,4.39372c-0.04151,0.4545 -0.08301,0.64024 -0.12383,0.55721c0.12383,0.82598 0.26805,1.65055 0.43341,2.47583c0.20614,1.03142 0.71201,1.81589 1.51618,2.35129c0.80488,0.53681 2.34073,0.86608 4.61042,0.98991c5.56938,0.33139 9.01401,2.27039 10.33459,5.81775c0.20545,0.33066 0.4116,0.88718 0.61843,1.67026z" fill="#ffffff" stroke="none" stroke-width="1" stroke-linecap="butt" stroke-linejoin="miter"/><path d="M151.113,329v-298h177.77399v298z" fill="none" stroke="#f0ffff" stroke-width="2" stroke-linecap="butt" stroke-linejoin="miter"/></g></g></svg>